<?xml version="1.0" encoding="UTF-8"?>
<svg id="Layer_2" data-name="Layer 2" xmlns="http://www.w3.org/2000/svg" viewBox="0 0 53.3 51.14">
  <defs>
    <style>
      .cls-1 {
        fill: #231f20;
        stroke: #231f20;
        stroke-miterlimit: 10;
      }
    </style>
  </defs>
  <g id="Layer_1-2" data-name="Layer 1">
    <g>
      <path class="cls-1" d="M32.6,31.67c.49.01.88.41.88.9v17.16c0,.5.4.9.9.9h11.6c.5,0,.9-.4.9-.9v-26.18c0-.5.4-.9.9-.9h4.11c.85,0,1.23-1.07.56-1.61L27.09.7c-.35-.28-.85-.26-1.18.04l-3.16,30.95,9.85-.02Z"/>
      <path class="cls-1" d="M20.7,31.67c-.49.01-.88.41-.88.9v17.16c0,.5-.4.9-.9.9H7.32c-.5,0-.9-.4-.9-.9v-26.18c0-.5-.4-.9-.9-.9H1.4c-.85,0-1.23-1.07-.56-1.61L26.21.7c.35-.28.85-.26,1.18.04l3.16,30.95-9.85-.02Z"/>
    </g>
  </g>
</svg>