<?xml version="1.0" encoding="UTF-8"?>
<svg id="Layer_2" data-name="Layer 2" xmlns="http://www.w3.org/2000/svg" viewBox="0 0 54.56 51.86">
  <defs>
    <style>
      .cls-1 {
        fill: #231f20;
        stroke: #231f20;
        stroke-miterlimit: 10;
      }
    </style>
  </defs>
  <g id="Layer_1-2" data-name="Layer 1">
    <path class="cls-1" d="M.67,1.74C-.39,7.56,3.59,20.98,10.19,22.74c3.64.97,7.79-3.47,10.96-.99,2.02,1.58,2.05,3.79,2.02,6.04,0,.56-.47,1-1.02.99l-13.29-.3c-.56-.01-1.02.44-1.02,1v2.86c0,.57.48,1.03,1.05,1l1.29-.06c.58-.03,1.06.43,1.05,1.01,0,.62-.02,1.37-.05,1.98-.03.57.43,1.04,1,1.04h19.05c.65,0,1.13.62.97,1.25l-.5,1.92c-.11.44-.51.75-.97.75H12.25c-.67,0-1.15.64-.96,1.29l1.13,3.78c1.12,2.69,2.63,3.54,5.49,4.13,5.24,1.08,14.95,1.87,19.67-1.34,2.6-1.77,4.78-10.04,3.63-13.98-.19-.66.33-1.3,1.02-1.27.96.05,1.96.04,2.22-.29.44-.58.19-2.66.06-4.02-.05-.51-.48-.9-.99-.9h-13.1c-.44,0-.84-.29-.96-.72-.43-1.52-1.06-3.12-.2-3.98,2.97-2.97,7.9-.06,11.88-.97.08-.02.16-.04.23-.08,6.68-2.93,10.61-10.43,12.66-18.09.13-.49-.13-1.01-.6-1.19-6.75-2.56-14.31-1.49-20.06,3.24-.08.06-.15.14-.21.22-2.78,3.84-2,8.56-4.6,12.44-.18.27-.5.43-.83.43h-1.04c-.28,0-.55-.11-.74-.32-4.66-5.02-3.82-12.77-9.7-16.68C11.25-.07,5.25-.07.67,1.74"/>
  </g>
</svg>